<svg width="32" height="32" viewBox="0 0 32 32" fill="none" xmlns="http://www.w3.org/2000/svg">
<path d="M17.5513 5.61254C17.6541 5.22836 17.9053 4.90074 18.2497 4.70173C18.594 4.50272 19.0033 4.44861 19.3875 4.55129C21.3268 5.05649 23.0961 6.06986 24.5132 7.48689C25.9302 8.90391 26.9436 10.6733 27.4488 12.6125C27.5043 12.8043 27.5211 13.0051 27.498 13.2034C27.4749 13.4017 27.4125 13.5933 27.3145 13.7672C27.2164 13.941 27.0846 14.0935 26.9268 14.2158C26.769 14.338 26.5884 14.4276 26.3956 14.4791C26.2028 14.5307 26.0016 14.5433 25.8039 14.5161C25.6061 14.489 25.4158 14.4226 25.244 14.3209C25.0723 14.2193 24.9225 14.0844 24.8036 13.9241C24.6846 13.7638 24.5988 13.5814 24.5513 13.3875C24.1787 11.9591 23.4321 10.6557 22.3882 9.61186C21.3443 8.56798 20.041 7.82131 18.6125 7.44879C18.2283 7.34595 17.9007 7.09473 17.7017 6.75039C17.5027 6.40605 17.4486 5.99677 17.5513 5.61254ZM28.4813 22.9475C28.2429 24.7621 27.3522 26.4278 25.9754 27.6336C24.5987 28.8394 22.8301 29.5029 21 29.5C10.7988 29.5 2.50001 21.2013 2.50001 11C2.49717 9.16992 3.16062 7.40134 4.36643 6.02461C5.57225 4.64788 7.23797 3.75716 9.05251 3.51879C9.58715 3.45383 10.1285 3.56281 10.5964 3.82961C11.0642 4.09641 11.4337 4.50682 11.65 5.00004L14.2888 10.8913C14.2916 10.899 14.2949 10.9065 14.2988 10.9138C14.4609 11.2928 14.5268 11.7061 14.4906 12.1167C14.4544 12.5274 14.3172 12.9227 14.0913 13.2675C14.059 13.3177 14.0235 13.3657 13.985 13.4113L11.6025 16.25C12.485 17.855 14.165 19.52 15.7888 20.4013L18.5775 18.0263C18.6223 17.9888 18.669 17.9538 18.7175 17.9213C19.0635 17.6891 19.4623 17.5475 19.8773 17.5095C20.2922 17.4715 20.7101 17.5383 21.0925 17.7038L21.115 17.7138L27 20.35C27.4931 20.5665 27.9034 20.936 28.1702 21.4038C28.4369 21.8717 28.546 22.4129 28.4813 22.9475ZM25.4425 22.94L20.1925 20.5888L17.3888 22.9725C17.3446 23.0106 17.2983 23.0461 17.25 23.0788C16.8896 23.3178 16.4734 23.4592 16.042 23.4892C15.6106 23.5192 15.1788 23.4368 14.7888 23.25C12.3538 22.075 9.92751 19.665 8.75001 17.25C8.56276 16.8618 8.47909 16.4317 8.50712 16.0015C8.53516 15.5713 8.67395 15.1557 8.91001 14.795C8.94267 14.7448 8.97858 14.6968 9.01751 14.6513L11.4125 11.8113L9.06001 6.56129C8.04927 6.78403 7.14509 7.34571 6.49754 8.1531C5.84999 8.9605 5.498 9.96505 5.50001 11C5.50497 15.1094 7.1396 19.049 10.0453 21.9547C12.9511 24.8605 16.8907 26.4951 21 26.5C22.0356 26.5029 23.0411 26.1513 23.8492 25.5037C24.6574 24.8561 25.2196 23.9514 25.4425 22.94ZM17.2038 12.1838C17.8172 12.3771 18.3749 12.7156 18.8297 13.1703C19.2845 13.6251 19.6229 14.1829 19.8163 14.7963C19.912 15.1006 20.1022 15.3665 20.3594 15.5554C20.6166 15.7442 20.9272 15.8461 21.2463 15.8463C21.3993 15.8461 21.5514 15.823 21.6975 15.7775C22.0755 15.6579 22.3907 15.3936 22.5744 15.0422C22.758 14.6909 22.7951 14.2811 22.6775 13.9025C22.3392 12.8285 21.7468 11.8519 20.9506 11.0557C20.1544 10.2595 19.1778 9.66707 18.1038 9.32879C17.9147 9.26536 17.715 9.24026 17.5161 9.25494C17.3173 9.26962 17.1234 9.32379 16.9457 9.4143C16.7681 9.5048 16.6102 9.62981 16.4814 9.78202C16.3527 9.93423 16.2555 10.1106 16.1957 10.3008C16.1359 10.491 16.1146 10.6912 16.133 10.8897C16.1515 11.0882 16.2093 11.2811 16.3032 11.457C16.397 11.6329 16.525 11.7883 16.6797 11.9142C16.8343 12.0401 17.0125 12.1338 17.2038 12.19V12.1838Z" fill="white"/>
</svg>
